<?xml version="1.0" encoding="UTF-8" ?>
<!DOCTYPE svg PUBLIC "-//W3C//DTD SVG 1.1//EN" "http://www.w3.org/Graphics/SVG/1.1/DTD/svg11.dtd">
<svg width="1067pt" height="1067pt" viewBox="0 0 1067 1067" version="1.1" xmlns="http://www.w3.org/2000/svg">
<g id="#d0d0d0fa">
<path fill="#d0d0d0" opacity="0.98" d=" M 31.43 23.64 C 35.77 22.15 40.42 22.51 44.93 22.48 C 372.61 22.49 700.29 22.47 1027.97 22.49 C 1040.60 22.41 1052.33 33.22 1052.99 45.88 C 1053.01 371.58 1052.99 697.27 1053.00 1022.97 C 1052.94 1027.27 1053.47 1031.75 1051.80 1035.86 C 1048.36 1046.18 1037.86 1053.54 1026.98 1053.27 C 700.65 1053.27 374.32 1053.27 47.98 1053.27 C 41.56 1053.18 34.78 1053.97 28.79 1051.08 C 19.55 1046.97 13.04 1037.18 13.46 1026.99 C 13.47 700.65 13.45 374.31 13.47 47.97 C 13.32 37.08 21.10 26.85 31.43 23.64 M 34.51 33.62 C 28.11 35.69 23.47 42.23 23.85 49.00 C 23.87 374.99 23.84 700.99 23.86 1026.99 C 23.37 1035.64 31.38 1043.26 39.94 1042.82 C 369.00 1042.82 698.06 1042.85 1027.12 1042.81 C 1035.53 1043.06 1043.18 1035.52 1042.82 1027.07 C 1042.84 701.01 1042.82 374.96 1042.83 48.91 C 1043.27 40.35 1035.58 32.42 1026.97 32.88 C 699.97 32.86 372.97 32.88 45.97 32.87 C 42.15 32.97 38.21 32.47 34.51 33.62 Z" />
</g>
<g id="#000000ff">
<path fill="#000000" opacity="1.00" d=" M 34.51 33.62 C 38.21 32.47 42.15 32.97 45.97 32.87 C 372.97 32.88 699.97 32.86 1026.97 32.88 C 1035.58 32.42 1043.27 40.35 1042.83 48.91 C 1042.82 374.96 1042.84 701.01 1042.82 1027.07 C 1043.18 1035.52 1035.53 1043.06 1027.12 1042.81 C 698.06 1042.85 369.00 1042.82 39.94 1042.82 C 31.38 1043.26 23.37 1035.64 23.86 1026.99 C 23.84 700.99 23.87 374.99 23.85 49.00 C 23.47 42.23 28.11 35.69 34.51 33.62 M 66.66 154.91 C 66.55 157.60 66.43 160.29 66.61 162.98 C 67.66 170.97 67.67 179.08 69.76 186.93 C 73.99 212.68 82.35 237.74 94.57 260.81 C 107.72 285.33 125.30 307.38 145.92 326.04 C 174.09 351.81 207.32 371.34 241.51 387.98 C 264.34 398.37 287.22 408.69 310.52 417.99 C 327.11 424.56 343.37 431.92 359.88 438.68 C 399.07 455.42 437.64 475.64 468.74 505.25 C 472.73 509.62 476.80 513.94 480.68 518.42 C 483.88 522.07 487.62 525.76 488.23 530.84 C 487.11 530.76 484.88 530.60 483.76 530.52 C 483.43 530.14 482.75 529.37 482.42 528.99 C 477.12 526.20 472.44 522.38 467.36 519.22 C 457.41 513.11 447.69 506.54 437.11 501.52 C 415.50 490.23 392.94 480.82 369.90 472.88 C 362.08 470.53 354.57 467.21 346.63 465.28 C 338.58 462.04 330.19 459.71 322.02 456.78 C 304.17 451.29 286.56 445.09 268.88 439.05 C 258.86 436.09 249.40 431.53 239.50 428.25 C 221.73 420.94 203.80 413.86 186.87 404.72 C 183.05 403.24 179.38 401.41 175.97 399.12 C 152.08 387.04 129.68 372.07 108.85 355.27 C 100.13 347.90 91.23 340.71 83.39 332.37 C 77.52 326.96 73.04 320.10 66.47 315.46 C 66.24 314.32 66.02 313.19 65.78 312.06 C 65.93 313.50 66.12 314.94 66.37 316.37 C 67.14 319.46 67.58 322.66 68.92 325.58 C 73.06 338.80 77.40 351.99 82.65 364.83 C 92.72 388.12 106.58 409.71 123.11 428.94 C 130.48 436.87 138.25 444.42 146.10 451.88 C 160.87 464.43 176.89 475.57 193.99 484.75 C 213.83 496.66 235.71 504.48 257.07 513.13 C 279.30 520.68 301.78 527.54 324.44 533.67 C 337.56 536.93 350.25 541.68 363.34 545.07 C 383.94 551.19 404.44 557.95 423.99 566.97 C 441.42 575.05 458.42 584.36 473.51 596.33 C 478.51 600.33 483.64 604.35 487.54 609.49 C 487.56 610.07 487.62 611.23 487.65 611.82 C 482.81 611.74 478.58 609.28 474.45 607.06 C 462.33 600.65 449.34 596.23 436.70 591.02 C 427.47 588.21 418.24 585.43 408.94 582.88 C 402.33 581.97 396.15 579.27 389.56 578.26 C 384.76 577.16 380.05 575.58 375.09 575.33 C 367.14 573.55 359.16 571.91 351.16 570.41 C 344.46 568.56 337.44 568.45 330.75 566.53 C 322.16 565.05 313.51 563.83 305.03 561.82 C 298.81 561.69 292.99 559.25 286.87 558.46 C 281.11 557.56 275.66 555.32 269.88 554.60 C 265.74 554.16 261.92 552.39 257.82 551.78 C 253.74 551.19 249.95 549.50 245.93 548.65 C 233.21 545.85 221.12 540.82 208.62 537.33 C 207.00 536.56 205.39 535.78 203.80 534.97 C 196.52 533.72 190.14 529.75 183.26 527.29 C 179.23 525.82 175.47 523.71 171.69 521.71 C 166.76 519.36 161.71 517.22 157.07 514.32 C 156.29 512.80 154.95 511.89 153.31 511.54 C 152.68 513.53 154.20 515.41 156.14 515.67 C 158.98 521.28 163.45 525.80 167.20 530.80 C 185.24 552.66 206.68 571.97 231.26 586.23 C 247.85 596.21 265.62 604.04 283.85 610.49 C 313.76 620.47 344.52 627.49 375.05 635.16 C 387.89 638.25 400.87 641.16 413.16 646.09 C 433.16 653.40 452.57 662.62 469.97 675.01 C 484.78 685.57 499.34 696.88 511.08 710.89 C 534.15 735.80 548.02 767.18 563.89 796.77 C 578.54 825.70 594.19 854.12 609.08 882.92 C 613.73 891.04 617.46 899.69 622.77 907.41 C 628.73 908.91 634.90 908.33 640.98 908.46 C 677.67 908.52 714.36 908.41 751.05 908.42 C 753.42 908.70 755.84 907.34 756.36 904.93 C 761.10 890.00 764.68 874.74 768.85 859.64 C 774.19 841.10 778.34 822.25 783.97 803.81 C 786.32 793.65 790.26 783.85 791.44 773.44 C 782.24 766.07 774.01 757.52 766.43 748.52 C 748.69 726.76 734.96 701.42 728.34 674.04 C 725.74 667.38 726.42 660.09 724.52 653.27 C 723.59 645.64 725.25 637.76 723.39 630.28 C 723.31 629.09 723.25 627.90 723.21 626.72 C 722.87 626.74 722.19 626.77 721.84 626.79 C 721.72 628.02 721.61 629.25 721.51 630.50 C 721.12 630.59 720.32 630.78 719.93 630.87 C 719.65 634.20 717.85 637.05 716.56 640.04 C 710.67 653.64 705.13 667.39 699.85 681.23 C 697.55 689.69 694.17 697.81 691.94 706.30 C 688.61 717.42 685.66 728.65 682.27 739.74 C 681.29 739.77 679.32 739.82 678.34 739.84 C 678.25 727.58 678.23 715.32 678.23 703.06 C 678.24 701.45 677.89 699.89 677.55 698.34 C 676.72 689.06 675.93 679.78 674.61 670.55 C 674.38 665.40 673.89 660.26 672.66 655.25 C 671.52 650.57 671.40 645.77 671.06 641.01 C 669.90 635.44 668.37 629.94 667.72 624.28 C 664.92 613.22 662.61 602.06 659.15 591.18 C 653.72 570.97 645.79 551.45 636.90 532.51 C 629.67 518.70 622.43 504.85 613.29 492.18 C 603.72 478.82 593.48 465.85 581.57 454.49 C 573.21 445.76 564.03 437.90 554.52 430.48 C 524.28 406.66 489.42 389.72 454.40 374.19 C 445.06 370.72 436.16 366.17 426.79 362.78 C 386.47 346.79 345.58 332.25 305.23 316.40 C 268.76 301.42 232.21 286.15 198.00 266.39 C 171.68 251.77 146.40 235.09 123.56 215.42 C 111.82 205.53 101.24 194.39 90.44 183.51 C 85.97 179.15 82.51 173.92 78.45 169.21 C 74.45 164.49 71.40 158.96 66.66 154.91 M 675.54 375.53 C 675.83 376.64 676.14 377.77 676.44 378.90 C 681.04 396.17 689.08 412.94 701.74 425.76 C 701.68 426.67 701.55 428.50 701.48 429.41 C 698.58 431.86 694.71 432.86 691.39 434.66 C 683.82 437.87 676.75 442.08 669.61 446.14 C 658.38 453.90 647.24 461.88 637.36 471.35 C 637.65 472.51 637.85 473.74 638.47 474.80 C 643.41 483.21 649.25 491.10 653.57 499.86 C 658.04 508.49 662.91 517.05 665.95 526.31 C 666.28 526.32 666.93 526.34 667.25 526.35 C 671.04 522.09 674.32 517.39 678.54 513.52 C 680.23 512.00 681.65 510.18 682.14 507.91 C 682.61 507.71 683.54 507.33 684.00 507.13 C 694.27 495.85 706.67 486.88 718.95 477.96 C 723.50 474.73 728.52 472.22 732.88 468.71 C 728.42 467.18 723.67 467.41 719.05 467.75 C 718.66 467.91 717.87 468.22 717.47 468.38 C 712.93 468.18 708.45 468.83 703.98 469.49 C 696.62 469.96 689.70 472.72 682.42 473.66 C 677.72 475.02 673.14 476.80 668.30 477.66 C 668.39 476.15 668.49 474.64 668.63 473.14 C 675.80 468.38 682.29 462.61 689.84 458.38 C 704.91 449.04 721.34 442.10 738.19 436.67 C 742.10 435.15 746.43 433.32 750.64 434.89 C 751.24 434.01 752.61 433.40 752.61 432.25 C 751.99 431.48 751.30 430.79 750.63 430.09 C 748.39 431.48 746.42 430.20 744.56 428.99 C 733.83 425.86 724.46 419.18 716.19 411.81 C 714.71 410.79 714.24 409.09 714.02 407.41 C 717.54 407.37 721.19 407.17 724.51 408.57 C 727.34 409.47 730.25 410.12 733.17 410.70 C 737.77 411.28 742.41 411.50 746.99 412.32 C 756.65 412.58 766.33 412.66 775.98 412.28 C 783.42 410.96 791.04 411.04 798.42 409.29 C 801.96 408.37 805.64 408.60 809.25 408.21 C 816.78 407.00 824.43 407.65 832.02 407.50 C 837.70 407.26 843.28 408.58 848.95 408.75 C 855.52 410.79 862.53 410.56 869.07 412.80 C 878.94 415.39 888.85 418.27 897.95 423.00 C 906.33 427.65 914.31 433.65 919.63 441.75 C 922.39 445.38 921.72 450.14 921.61 454.40 C 919.18 455.33 916.75 456.45 914.12 456.62 C 907.58 457.02 900.86 456.95 894.58 454.90 C 886.06 452.07 878.66 446.85 870.68 442.88 C 868.34 441.72 866.12 440.34 863.90 438.98 C 853.24 435.09 842.56 429.98 830.91 430.39 C 829.46 427.72 825.92 428.82 823.62 429.49 C 821.96 430.43 820.07 430.75 818.22 431.03 C 819.36 431.17 820.51 431.33 821.67 431.51 C 823.70 434.58 829.33 434.06 829.01 438.51 C 823.58 438.36 818.45 440.35 813.08 440.74 C 809.71 441.16 806.49 442.35 803.11 442.74 C 802.92 443.19 802.54 444.09 802.35 444.54 C 800.81 444.65 799.28 444.78 797.77 444.92 C 808.50 445.62 819.78 445.25 829.74 449.78 C 834.76 453.00 835.02 459.45 838.48 463.84 C 843.64 471.93 852.87 476.44 862.00 478.39 C 866.98 478.56 872.03 478.83 876.97 477.95 C 881.16 476.42 885.48 475.08 890.01 475.31 C 889.85 478.79 887.08 481.07 884.59 483.08 C 880.56 486.20 876.30 489.05 871.68 491.22 C 863.34 494.78 854.48 496.76 845.91 499.62 C 838.41 501.33 831.39 504.51 824.10 506.88 C 812.59 511.48 801.20 516.79 791.33 524.41 C 790.38 525.18 789.73 526.24 789.03 527.22 C 787.98 527.63 786.95 528.04 785.92 528.47 C 796.45 527.70 806.35 522.96 816.99 523.21 C 824.49 521.89 832.12 522.27 839.69 522.38 C 839.63 523.36 839.51 525.31 839.45 526.29 C 837.29 526.84 835.14 527.39 832.99 527.89 C 823.90 532.55 814.65 536.96 805.94 542.35 C 780.60 557.87 761.30 582.92 752.33 611.18 C 749.27 613.91 751.28 618.62 749.30 622.01 C 751.83 616.88 756.63 613.50 760.38 609.33 C 769.17 600.55 778.69 592.12 789.97 586.69 C 791.00 586.54 793.06 586.25 794.09 586.10 C 794.12 592.79 789.37 597.94 787.35 604.03 C 783.01 613.29 780.23 623.15 777.79 633.04 C 777.20 640.43 774.50 647.54 774.63 655.01 C 774.59 663.67 774.49 672.34 774.66 681.01 C 775.11 688.09 777.03 694.96 777.77 702.00 C 781.44 719.55 787.88 736.36 794.96 752.78 C 795.50 753.36 796.05 753.95 796.61 754.55 C 796.73 755.12 796.98 756.28 797.10 756.85 C 797.30 756.49 797.72 755.78 797.92 755.42 C 798.82 749.73 801.00 744.34 801.78 738.62 C 803.82 733.17 804.40 727.36 806.36 721.89 C 809.15 712.27 811.40 702.51 814.19 692.89 C 815.25 686.64 817.78 680.76 818.77 674.49 C 820.66 668.79 821.41 662.79 823.49 657.16 C 824.94 653.11 825.33 648.78 826.84 644.75 C 828.48 640.59 828.51 636.00 830.26 631.86 C 832.81 622.95 834.75 613.86 837.54 605.00 C 841.64 588.89 849.34 573.73 859.77 560.78 C 874.15 543.47 894.06 529.82 916.67 526.55 C 923.77 525.98 930.91 526.16 938.04 526.36 C 944.07 526.33 949.92 528.99 954.41 532.92 C 959.89 537.84 961.39 545.67 961.46 552.71 C 962.41 552.68 964.31 552.61 965.26 552.58 C 972.16 546.35 979.43 540.16 983.91 531.85 C 988.16 525.41 989.61 517.73 991.28 510.34 C 992.71 502.59 990.63 494.86 988.33 487.50 C 985.85 480.37 981.19 474.21 975.70 469.10 C 974.69 468.44 973.76 466.81 972.38 467.57 L 972.51 466.61 C 963.25 458.70 952.09 453.73 940.95 449.10 C 940.21 448.30 939.49 447.51 938.79 446.72 C 937.82 442.11 936.61 437.48 934.24 433.37 C 931.09 426.99 925.44 422.44 920.44 417.57 C 911.27 410.63 901.05 404.93 890.14 401.23 C 888.25 400.54 886.41 399.74 884.70 398.71 C 882.88 398.46 881.08 398.18 879.32 397.75 C 876.17 396.52 872.90 394.72 869.40 395.63 L 870.89 394.94 C 868.59 394.30 866.29 393.75 863.99 393.19 C 862.64 392.83 861.29 392.48 859.97 392.14 C 854.60 390.78 849.04 390.70 843.60 389.78 C 835.73 389.22 827.89 388.14 819.97 388.51 C 812.28 388.03 804.71 389.57 797.05 389.74 C 789.81 391.43 782.25 390.89 774.98 392.37 C 771.01 392.93 766.91 392.06 763.04 393.29 C 753.70 393.79 744.32 393.71 734.99 393.25 C 727.97 392.11 720.88 391.52 713.90 390.27 C 707.16 388.32 700.28 386.83 693.87 383.92 C 689.32 382.08 684.57 380.47 680.51 377.68 C 679.95 377.62 678.84 377.50 678.28 377.44 C 677.36 376.80 676.45 376.17 675.54 375.53 M 744.09 503.90 C 738.60 506.43 732.47 507.32 727.21 510.38 C 726.55 510.50 725.23 510.75 724.57 510.87 C 706.62 519.96 687.77 528.12 672.38 541.40 C 677.47 555.76 681.19 570.56 685.33 585.18 C 686.14 591.13 687.94 596.90 689.87 602.57 C 690.18 602.45 690.80 602.21 691.11 602.09 C 692.27 594.63 696.60 588.17 699.09 581.12 C 704.88 568.25 711.32 555.60 719.20 543.87 C 724.84 534.37 731.58 525.51 739.28 517.59 C 744.39 511.51 749.79 505.62 755.80 500.44 C 752.12 502.25 748.11 503.19 744.09 503.90 M 324.08 657.67 C 323.33 659.10 322.58 660.53 321.83 661.97 C 321.08 666.44 319.41 670.67 318.13 675.01 C 316.84 681.50 314.30 687.68 313.21 694.22 C 311.79 698.09 310.70 702.06 309.83 706.09 C 308.80 710.88 306.98 715.47 306.20 720.32 C 304.00 725.97 303.17 732.03 301.43 737.82 C 297.69 751.18 294.19 764.60 290.57 777.99 C 288.56 787.56 285.03 796.70 282.19 806.03 C 269.27 841.52 244.70 873.33 211.56 891.99 C 201.75 897.48 191.65 902.75 180.77 905.77 C 180.56 906.46 180.13 907.85 179.92 908.55 C 253.01 908.40 326.10 908.49 399.19 908.46 C 400.08 907.24 401.13 906.11 401.73 904.72 C 407.84 881.58 413.68 858.37 420.33 835.37 C 421.38 829.18 423.85 823.34 424.87 817.15 C 427.14 810.73 428.39 804.01 430.29 797.49 C 431.62 793.76 432.53 789.94 433.04 786.03 C 433.32 783.77 436.56 781.39 433.95 779.60 C 434.30 779.62 434.99 779.66 435.34 779.68 C 437.46 772.06 439.52 764.42 441.89 756.87 C 443.10 750.14 445.18 743.62 446.81 736.99 C 447.72 734.42 448.41 731.78 448.80 729.08 C 449.13 728.04 449.47 727.00 449.82 725.98 C 451.03 722.05 452.03 718.06 452.90 714.04 C 453.73 711.05 453.78 707.95 453.66 704.88 C 437.70 693.60 419.93 684.97 401.54 678.44 C 386.88 672.85 371.45 669.81 356.48 665.20 C 350.92 664.03 345.43 662.60 339.98 661.01 C 334.54 660.51 329.56 657.83 324.08 657.67 Z" />
<path fill="#000000" opacity="1.00" d=" M 851.39 449.26 C 855.36 448.81 859.24 450.09 862.34 452.58 C 863.28 454.86 863.48 457.33 863.72 459.76 C 865.65 461.61 867.59 463.46 869.43 465.41 C 873.99 464.80 878.18 462.40 882.95 463.19 C 882.82 464.20 882.57 466.21 882.45 467.22 C 879.84 469.00 877.46 471.78 874.05 471.68 C 868.91 471.73 863.13 472.68 858.67 469.53 C 855.36 467.22 852.36 463.99 851.58 459.91 C 850.98 456.39 851.29 452.80 851.39 449.26 Z" />
<path fill="#000000" opacity="1.00" d=" M 927.22 462.77 C 930.65 461.55 933.99 463.68 937.01 465.11 C 941.48 465.75 945.35 468.27 949.55 469.78 C 959.96 474.59 969.95 482.33 974.11 493.37 C 976.62 499.25 975.49 505.77 975.72 511.97 C 976.00 518.53 972.90 524.50 970.94 530.59 C 969.52 530.57 968.13 530.56 966.74 530.56 C 963.85 522.81 957.88 516.32 950.36 512.87 C 945.37 510.66 940.53 507.75 934.99 507.17 C 929.38 505.88 923.74 504.23 917.94 504.36 C 905.26 504.36 892.57 504.16 879.90 504.60 C 874.47 505.62 868.96 505.75 863.45 505.54 C 863.45 505.10 863.44 504.22 863.44 503.78 C 866.86 501.70 870.35 499.54 874.42 499.08 C 877.55 496.81 881.41 496.05 884.76 494.19 C 891.02 490.90 897.70 487.90 902.51 482.53 C 906.70 478.53 909.13 472.77 914.38 469.89 C 918.66 467.54 922.87 465.02 927.22 462.77 M 929.70 475.43 C 929.18 475.79 928.14 476.52 927.62 476.88 C 927.48 477.84 927.36 478.81 927.25 479.78 C 930.37 479.43 933.45 478.84 936.55 478.35 C 936.59 477.88 936.69 476.94 936.73 476.47 C 934.44 475.77 932.08 475.41 929.70 475.43 Z" />
</g>
<g id="#cc1821ff">
<path fill="#cc1821" opacity="1.00" d=" M 66.66 154.91 C 71.40 158.96 74.45 164.49 78.45 169.21 C 82.51 173.92 85.97 179.15 90.44 183.51 C 101.24 194.39 111.82 205.53 123.56 215.42 C 146.40 235.09 171.68 251.77 198.00 266.39 C 232.21 286.15 268.76 301.42 305.23 316.40 C 345.58 332.25 386.47 346.79 426.79 362.78 C 436.16 366.17 445.06 370.72 454.40 374.19 C 489.42 389.72 524.28 406.66 554.52 430.48 C 564.03 437.90 573.21 445.76 581.57 454.49 C 593.48 465.85 603.72 478.82 613.29 492.18 C 622.43 504.85 629.67 518.70 636.90 532.51 C 645.79 551.45 653.72 570.97 659.15 591.18 C 662.61 602.06 664.92 613.22 667.72 624.28 C 668.37 629.94 669.90 635.44 671.06 641.01 C 671.40 645.77 671.52 650.57 672.66 655.25 C 673.89 660.26 674.38 665.40 674.61 670.55 C 675.93 679.78 676.72 689.06 677.55 698.34 C 677.89 699.89 678.24 701.45 678.23 703.06 C 678.23 715.32 678.25 727.58 678.34 739.84 C 679.32 739.82 681.29 739.77 682.27 739.74 C 685.66 728.65 688.61 717.42 691.94 706.30 C 694.17 697.81 697.55 689.69 699.85 681.23 C 705.13 667.39 710.67 653.64 716.56 640.04 C 717.85 637.05 719.65 634.20 719.93 630.87 C 720.32 630.78 721.12 630.59 721.51 630.50 C 721.61 629.25 721.72 628.02 721.84 626.79 C 722.19 626.77 722.87 626.74 723.21 626.72 C 723.25 627.90 723.31 629.09 723.39 630.28 C 725.25 637.76 723.59 645.64 724.52 653.27 C 726.42 660.09 725.74 667.38 728.34 674.04 C 734.96 701.42 748.69 726.76 766.43 748.52 C 774.01 757.52 782.24 766.07 791.44 773.44 C 790.26 783.85 786.32 793.65 783.97 803.81 C 778.34 822.25 774.19 841.10 768.85 859.64 C 764.68 874.74 761.10 890.00 756.36 904.93 C 755.84 907.34 753.42 908.70 751.05 908.42 C 714.36 908.41 677.67 908.52 640.98 908.46 C 634.90 908.33 628.73 908.91 622.77 907.41 C 617.46 899.69 613.73 891.04 609.08 882.92 C 594.19 854.12 578.54 825.70 563.89 796.77 C 548.02 767.18 534.15 735.80 511.08 710.89 C 499.34 696.88 484.78 685.57 469.97 675.01 C 452.57 662.62 433.16 653.40 413.16 646.09 C 400.87 641.16 387.89 638.25 375.05 635.16 C 344.52 627.49 313.76 620.47 283.85 610.49 C 265.62 604.04 247.85 596.21 231.26 586.23 C 206.68 571.97 185.24 552.66 167.20 530.80 C 163.45 525.80 158.98 521.28 156.14 515.67 C 154.20 515.41 152.68 513.53 153.31 511.54 C 154.95 511.89 156.29 512.80 157.07 514.32 C 161.71 517.22 166.76 519.36 171.69 521.71 C 175.47 523.71 179.23 525.82 183.26 527.29 C 190.14 529.75 196.52 533.72 203.80 534.97 C 205.39 535.78 207.00 536.56 208.62 537.33 C 221.12 540.82 233.21 545.85 245.93 548.65 C 249.95 549.50 253.74 551.19 257.82 551.78 C 261.92 552.39 265.74 554.16 269.88 554.60 C 275.66 555.32 281.11 557.56 286.87 558.46 C 292.99 559.25 298.81 561.69 305.03 561.82 C 313.51 563.83 322.16 565.05 330.75 566.53 C 337.44 568.45 344.46 568.56 351.16 570.41 C 359.16 571.91 367.14 573.55 375.09 575.33 C 380.05 575.58 384.76 577.16 389.56 578.26 C 396.15 579.27 402.33 581.97 408.94 582.88 C 418.24 585.43 427.47 588.21 436.70 591.02 C 449.34 596.23 462.33 600.65 474.45 607.06 C 478.58 609.28 482.81 611.74 487.65 611.82 C 487.62 611.23 487.56 610.07 487.54 609.49 C 483.64 604.35 478.51 600.33 473.51 596.33 C 458.42 584.36 441.42 575.05 423.99 566.97 C 404.44 557.95 383.94 551.19 363.34 545.07 C 350.25 541.68 337.56 536.93 324.44 533.67 C 301.78 527.54 279.30 520.68 257.07 513.13 C 235.71 504.48 213.83 496.66 193.99 484.75 C 176.89 475.57 160.87 464.43 146.10 451.88 C 138.25 444.42 130.48 436.87 123.11 428.94 C 106.58 409.71 92.72 388.12 82.65 364.83 C 77.40 351.99 73.06 338.80 68.92 325.58 C 67.58 322.66 67.14 319.46 66.37 316.37 C 66.12 314.94 65.93 313.50 65.78 312.06 C 66.02 313.19 66.24 314.32 66.47 315.46 C 73.04 320.10 77.52 326.96 83.39 332.37 C 91.23 340.71 100.13 347.90 108.85 355.27 C 129.68 372.07 152.08 387.04 175.97 399.12 C 179.38 401.41 183.05 403.24 186.87 404.72 C 203.80 413.86 221.73 420.94 239.50 428.25 C 249.40 431.53 258.86 436.09 268.88 439.05 C 286.56 445.09 304.17 451.29 322.02 456.78 C 330.19 459.71 338.58 462.04 346.63 465.28 C 354.57 467.21 362.08 470.53 369.90 472.88 C 392.94 480.82 415.50 490.23 437.11 501.52 C 447.69 506.54 457.41 513.11 467.36 519.22 C 472.44 522.38 477.12 526.20 482.42 528.99 C 482.75 529.37 483.43 530.14 483.76 530.52 C 484.88 530.60 487.11 530.76 488.23 530.84 C 487.62 525.76 483.88 522.07 480.68 518.42 C 476.80 513.94 472.73 509.62 468.74 505.25 C 437.64 475.64 399.07 455.42 359.88 438.68 C 343.37 431.92 327.11 424.56 310.52 417.99 C 287.22 408.69 264.34 398.37 241.51 387.98 C 207.32 371.34 174.09 351.81 145.92 326.04 C 125.30 307.38 107.72 285.33 94.57 260.81 C 82.35 237.74 73.99 212.68 69.76 186.93 C 67.67 179.08 67.66 170.97 66.61 162.98 C 66.43 160.29 66.55 157.60 66.66 154.91 M 68.32 159.27 C 68.72 167.60 69.60 175.92 71.12 184.12 C 71.75 187.71 71.98 191.37 72.03 195.01 C 72.71 195.64 73.40 196.26 74.08 196.89 C 75.79 210.38 80.66 223.17 85.30 235.87 C 90.42 248.27 96.03 260.54 103.38 271.81 C 109.97 283.14 118.08 293.46 126.52 303.45 C 129.64 307.00 131.90 311.38 135.99 313.98 C 162.87 340.43 194.32 362.17 228.19 378.73 C 257.17 394.09 287.70 406.23 317.95 418.79 C 329.30 423.40 340.41 428.61 351.85 433.00 C 364.92 438.36 377.67 444.44 390.49 450.34 C 402.47 457.07 414.95 462.92 426.45 470.49 C 431.25 472.98 436.07 475.42 440.45 478.63 C 443.87 481.33 448.86 480.88 451.70 484.46 C 452.05 480.43 448.55 477.66 446.58 474.55 C 437.00 460.08 425.26 447.15 412.81 435.12 C 409.29 430.99 405.28 427.32 401.14 423.84 C 391.53 415.76 382.51 406.88 371.91 400.06 C 366.59 395.59 360.10 392.76 354.92 388.14 C 359.29 388.37 363.37 390.00 367.34 391.68 C 374.53 394.78 382.14 396.72 389.30 399.86 C 404.84 405.49 419.71 412.74 434.90 419.22 C 455.48 428.76 475.74 439.06 495.10 450.91 C 499.14 453.60 503.04 456.51 507.32 458.84 C 512.97 461.97 517.87 466.22 523.18 469.87 C 537.32 479.49 549.91 491.08 562.92 502.14 C 576.46 515.95 590.26 529.67 601.62 545.39 C 608.84 554.96 616.34 564.41 622.08 574.97 C 623.49 577.16 625.31 579.09 626.45 581.47 C 629.57 588.53 634.17 594.81 637.05 602.00 C 644.42 615.14 651.18 628.74 655.73 643.16 C 657.46 648.36 659.69 653.39 661.26 658.66 C 664.54 670.37 669.08 681.73 671.45 693.69 C 672.42 698.21 672.76 702.92 674.63 707.21 C 676.04 697.09 673.00 687.06 672.61 676.96 C 670.99 664.30 670.69 651.53 668.87 638.91 C 667.99 634.55 665.62 630.55 665.68 626.00 C 665.57 617.57 661.88 609.86 659.97 601.80 C 656.21 587.45 652.05 573.18 646.49 559.42 C 636.28 534.09 623.98 509.37 607.36 487.59 C 600.27 477.85 592.97 468.12 584.06 459.94 C 577.81 453.87 571.93 447.39 565.19 441.83 C 560.17 436.74 554.06 432.96 548.63 428.33 C 536.93 419.42 524.26 411.87 511.57 404.47 C 495.04 394.83 477.63 386.84 460.23 378.91 C 443.37 372.15 426.89 364.43 409.78 358.30 C 388.79 349.60 367.23 342.43 346.08 334.14 C 311.83 321.37 277.84 307.84 244.64 292.54 C 228.98 285.05 213.24 277.70 198.32 268.78 C 191.77 265.47 185.79 261.18 179.26 257.83 C 164.85 249.15 150.91 239.66 137.63 229.34 C 118.09 214.82 100.81 197.50 84.24 179.73 C 81.53 177.05 80.17 173.37 77.58 170.60 C 74.25 167.02 71.71 162.80 68.32 159.27 Z" />
<path fill="#cc1821" opacity="1.00" d=" M 675.54 375.53 C 676.45 376.17 677.36 376.80 678.28 377.44 C 678.84 377.50 679.95 377.62 680.51 377.68 C 684.57 380.47 689.32 382.08 693.87 383.92 C 700.28 386.83 707.16 388.32 713.90 390.27 C 720.88 391.52 727.97 392.11 734.99 393.25 C 744.32 393.71 753.70 393.79 763.04 393.29 C 766.91 392.06 771.01 392.93 774.98 392.37 C 782.25 390.89 789.81 391.43 797.05 389.74 C 804.71 389.57 812.28 388.03 819.97 388.51 C 827.89 388.14 835.73 389.22 843.60 389.78 C 849.04 390.70 854.60 390.78 859.97 392.14 C 861.29 392.48 862.64 392.83 863.99 393.19 C 866.29 393.75 868.59 394.30 870.89 394.94 L 869.40 395.63 C 865.00 396.58 860.79 394.57 856.54 393.78 C 848.13 392.26 839.61 391.04 831.04 391.30 C 818.29 391.60 805.41 390.39 792.81 392.90 C 783.89 393.28 775.18 395.50 766.24 395.67 C 751.68 397.17 736.97 396.26 722.56 393.84 C 707.15 392.27 692.65 386.10 678.86 379.36 C 683.04 395.66 690.76 411.36 702.44 423.61 C 705.30 426.23 704.01 431.46 700.31 432.52 C 684.54 439.59 669.25 447.94 655.56 458.54 C 650.02 462.52 644.13 466.47 640.38 472.30 C 640.15 474.28 641.55 475.97 642.48 477.61 C 647.93 485.66 653.11 493.91 657.50 502.60 C 661.09 509.22 663.75 516.30 667.45 522.87 C 669.93 519.79 672.79 517.07 675.63 514.33 C 677.84 512.22 679.15 509.08 682.14 507.91 C 681.65 510.18 680.23 512.00 678.54 513.52 C 674.32 517.39 671.04 522.09 667.25 526.35 C 666.93 526.34 666.28 526.32 665.95 526.31 C 662.91 517.05 658.04 508.49 653.57 499.86 C 649.25 491.10 643.41 483.21 638.47 474.80 C 637.85 473.74 637.65 472.51 637.36 471.35 C 647.24 461.88 658.38 453.90 669.61 446.14 C 676.75 442.08 683.82 437.87 691.39 434.66 C 694.71 432.86 698.58 431.86 701.48 429.41 C 701.55 428.50 701.68 426.67 701.74 425.76 C 689.08 412.94 681.04 396.17 676.44 378.90 C 676.14 377.77 675.83 376.64 675.54 375.53 Z" />
<path fill="#cc1821" opacity="1.00" d=" M 714.23 405.23 C 721.33 404.65 727.98 407.90 734.97 408.55 C 741.66 409.12 748.24 410.86 755.00 410.61 C 762.99 410.34 771.09 411.26 778.99 409.64 C 784.23 408.61 789.61 408.65 794.84 407.56 C 800.83 406.27 807.00 406.75 813.06 406.00 C 830.72 404.27 848.42 406.71 865.77 409.88 C 880.87 413.99 896.54 418.21 909.21 427.82 C 916.10 433.12 922.53 439.86 924.82 448.47 C 925.84 452.87 922.98 457.10 919.37 459.36 C 919.77 460.18 920.18 461.01 920.61 461.84 C 920.24 462.18 919.49 462.86 919.12 463.21 C 922.66 461.86 926.13 459.99 929.96 459.68 C 934.02 460.61 937.48 463.17 941.45 464.44 C 948.60 466.87 955.16 470.66 962.03 473.73 C 964.48 474.72 966.18 476.82 968.36 478.23 C 970.92 477.91 973.45 477.33 976.04 477.21 C 975.07 476.27 974.13 475.34 973.19 474.40 C 972.39 474.86 971.61 475.32 970.85 475.79 C 971.63 473.10 972.03 470.34 972.38 467.57 C 973.76 466.81 974.69 468.44 975.70 469.10 C 981.19 474.21 985.85 480.37 988.33 487.50 C 990.63 494.86 992.71 502.59 991.28 510.34 C 989.61 517.73 988.16 525.41 983.91 531.85 C 979.43 540.16 972.16 546.35 965.26 552.58 C 964.31 552.61 962.41 552.68 961.46 552.71 C 961.39 545.67 959.89 537.84 954.41 532.92 C 949.92 528.99 944.07 526.33 938.04 526.36 C 930.91 526.16 923.77 525.98 916.67 526.55 C 894.06 529.82 874.15 543.47 859.77 560.78 C 849.34 573.73 841.64 588.89 837.54 605.00 C 834.75 613.86 832.81 622.95 830.26 631.86 C 828.51 636.00 828.48 640.59 826.84 644.75 C 825.33 648.78 824.94 653.11 823.49 657.16 C 821.41 662.79 820.66 668.79 818.77 674.49 C 817.78 680.76 815.25 686.64 814.19 692.89 C 811.40 702.51 809.15 712.27 806.36 721.89 C 804.40 727.36 803.82 733.17 801.78 738.62 C 801.00 744.34 798.82 749.73 797.92 755.42 C 797.72 755.78 797.30 756.49 797.10 756.85 C 796.98 756.28 796.73 755.12 796.61 754.55 C 796.05 753.95 795.50 753.36 794.96 752.78 C 787.88 736.36 781.44 719.55 777.77 702.00 C 777.03 694.96 775.11 688.09 774.66 681.01 C 774.49 672.34 774.59 663.67 774.63 655.01 C 774.50 647.54 777.20 640.43 777.79 633.04 C 780.23 623.15 783.01 613.29 787.35 604.03 C 789.37 597.94 794.12 592.79 794.09 586.10 C 793.06 586.25 791.00 586.54 789.97 586.69 C 778.69 592.12 769.17 600.55 760.38 609.33 C 756.63 613.50 751.83 616.88 749.30 622.01 C 751.28 618.62 749.27 613.91 752.33 611.18 C 761.30 582.92 780.60 557.87 805.94 542.35 C 814.65 536.96 823.90 532.55 832.99 527.89 C 835.14 527.39 837.29 526.84 839.45 526.29 C 839.51 525.31 839.63 523.36 839.69 522.38 C 832.12 522.27 824.49 521.89 816.99 523.21 C 806.35 522.96 796.45 527.70 785.92 528.47 C 786.95 528.04 787.98 527.63 789.03 527.22 C 789.73 526.24 790.38 525.18 791.33 524.41 C 801.20 516.79 812.59 511.48 824.10 506.88 C 831.39 504.51 838.41 501.33 845.91 499.62 C 854.48 496.76 863.34 494.78 871.68 491.22 C 876.30 489.05 880.56 486.20 884.59 483.08 C 887.08 481.07 889.85 478.79 890.01 475.31 C 885.48 475.08 881.16 476.42 876.97 477.95 C 872.03 478.83 866.98 478.56 862.00 478.39 C 852.87 476.44 843.64 471.93 838.48 463.84 C 835.02 459.45 834.76 453.00 829.74 449.78 C 819.78 445.25 808.50 445.62 797.77 444.92 C 799.28 444.78 800.81 444.65 802.35 444.54 C 802.54 444.09 802.92 443.19 803.11 442.74 C 806.49 442.35 809.71 441.16 813.08 440.74 C 818.45 440.35 823.58 438.36 829.01 438.51 C 829.33 434.06 823.70 434.58 821.67 431.51 C 820.51 431.33 819.36 431.17 818.22 431.03 C 820.07 430.75 821.96 430.43 823.62 429.49 C 825.92 428.82 829.46 427.72 830.91 430.39 C 842.56 429.98 853.24 435.09 863.90 438.98 C 866.12 440.34 868.34 441.72 870.68 442.88 C 878.66 446.85 886.06 452.07 894.58 454.90 C 900.86 456.95 907.58 457.02 914.12 456.62 C 916.75 456.45 919.18 455.33 921.61 454.40 C 921.72 450.14 922.39 445.38 919.63 441.75 C 914.31 433.65 906.33 427.65 897.95 423.00 C 888.85 418.27 878.94 415.39 869.07 412.80 C 862.53 410.56 855.52 410.79 848.95 408.75 C 843.28 408.58 837.70 407.26 832.02 407.50 C 824.43 407.65 816.78 407.00 809.25 408.21 C 805.64 408.60 801.96 408.37 798.42 409.29 C 791.04 411.04 783.42 410.96 775.98 412.28 C 766.33 412.66 756.65 412.58 746.99 412.32 C 742.41 411.50 737.77 411.28 733.17 410.70 C 730.25 410.12 727.34 409.47 724.51 408.57 C 721.19 407.17 717.54 407.37 714.02 407.41 C 714.24 409.09 714.71 410.79 716.19 411.81 C 724.46 419.18 733.83 425.86 744.56 428.99 C 746.42 430.20 748.39 431.48 750.63 430.09 C 751.30 430.79 751.99 431.48 752.61 432.25 C 752.61 433.40 751.24 434.01 750.64 434.89 C 746.43 433.32 742.10 435.15 738.19 436.67 C 721.34 442.10 704.91 449.04 689.84 458.38 C 682.29 462.61 675.80 468.38 668.63 473.14 C 668.49 474.64 668.39 476.15 668.30 477.66 C 673.14 476.80 677.72 475.02 682.42 473.66 C 689.70 472.72 696.62 469.96 703.98 469.49 C 708.45 468.83 712.93 468.18 717.47 468.38 C 712.63 470.28 707.33 470.11 702.36 471.47 C 694.58 473.63 686.50 474.43 678.79 476.87 C 675.05 477.82 671.23 479.61 667.30 478.86 C 665.05 477.47 665.09 473.76 667.21 472.26 C 689.71 453.27 716.97 440.78 744.98 432.29 C 739.29 429.09 732.95 427.14 727.56 423.42 C 722.07 419.67 716.76 415.49 712.61 410.27 C 710.86 408.80 711.88 405.26 714.23 405.23 M 851.39 449.26 C 851.29 452.80 850.98 456.39 851.58 459.91 C 852.36 463.99 855.36 467.22 858.67 469.53 C 863.13 472.68 868.91 471.73 874.05 471.68 C 877.46 471.78 879.84 469.00 882.45 467.22 C 882.57 466.21 882.82 464.20 882.95 463.19 C 878.18 462.40 873.99 464.80 869.43 465.41 C 867.59 463.46 865.65 461.61 863.72 459.76 C 863.48 457.33 863.28 454.86 862.34 452.58 C 859.24 450.09 855.36 448.81 851.39 449.26 M 927.22 462.77 C 922.87 465.02 918.66 467.54 914.38 469.89 C 909.13 472.77 906.70 478.53 902.51 482.53 C 897.70 487.90 891.02 490.90 884.76 494.19 C 881.41 496.05 877.55 496.81 874.42 499.08 C 870.35 499.54 866.86 501.70 863.44 503.78 C 863.44 504.22 863.45 505.10 863.45 505.54 C 868.96 505.75 874.47 505.62 879.90 504.60 C 892.57 504.16 905.26 504.36 917.94 504.36 C 923.74 504.23 929.38 505.88 934.99 507.17 C 940.53 507.75 945.37 510.66 950.36 512.87 C 957.88 516.32 963.85 522.81 966.74 530.56 C 968.13 530.56 969.52 530.57 970.94 530.59 C 972.90 524.50 976.00 518.53 975.72 511.97 C 975.49 505.77 976.62 499.25 974.11 493.37 C 969.95 482.33 959.96 474.59 949.55 469.78 C 945.35 468.27 941.48 465.75 937.01 465.11 C 933.99 463.68 930.65 461.55 927.22 462.77 Z" />
<path fill="#cc1821" opacity="1.00" d=" M 929.70 475.43 C 932.08 475.41 934.44 475.77 936.73 476.47 C 936.69 476.94 936.59 477.88 936.55 478.35 C 933.45 478.84 930.37 479.43 927.25 479.78 C 927.36 478.81 927.48 477.84 927.62 476.88 C 928.14 476.52 929.18 475.79 929.70 475.43 Z" />
<path fill="#cc1821" opacity="1.00" d=" M 744.09 503.90 C 748.11 503.19 752.12 502.25 755.80 500.44 C 749.79 505.62 744.39 511.51 739.28 517.59 C 731.58 525.51 724.84 534.37 719.20 543.87 C 711.32 555.60 704.88 568.25 699.09 581.12 C 696.60 588.17 692.27 594.63 691.11 602.09 C 690.80 602.21 690.18 602.45 689.87 602.57 C 687.94 596.90 686.14 591.13 685.33 585.18 C 681.19 570.56 677.47 555.76 672.38 541.40 C 687.77 528.12 706.62 519.96 724.57 510.87 C 725.23 510.75 726.55 510.50 727.21 510.38 C 732.47 507.32 738.60 506.43 744.09 503.90 M 678.62 538.73 C 676.95 539.91 674.73 541.50 675.42 543.88 C 676.20 548.07 678.01 551.98 679.22 556.06 C 680.87 560.83 681.95 565.77 683.65 570.53 C 686.77 578.15 687.55 586.46 690.22 594.24 C 691.51 593.18 692.69 591.94 693.19 590.30 C 699.68 573.67 707.64 557.55 717.72 542.79 C 724.89 531.31 732.91 520.09 743.17 511.16 C 744.82 509.20 746.15 507.01 747.66 504.95 C 723.16 512.73 699.72 524.03 678.62 538.73 Z" />
<path fill="#cc1821" opacity="1.00" d=" M 324.08 657.67 C 329.56 657.83 334.54 660.51 339.98 661.01 C 345.43 662.60 350.92 664.03 356.48 665.20 C 371.45 669.81 386.88 672.85 401.54 678.44 C 419.93 684.97 437.70 693.60 453.66 704.88 C 453.78 707.95 453.73 711.05 452.90 714.04 C 452.03 718.06 451.03 722.05 449.82 725.98 C 449.47 727.00 449.13 728.04 448.80 729.08 C 448.41 731.78 447.72 734.42 446.81 736.99 C 445.18 743.62 443.10 750.14 441.89 756.87 C 439.52 764.42 437.46 772.06 435.34 779.68 C 434.99 779.66 434.30 779.62 433.95 779.60 C 436.56 781.39 433.32 783.77 433.04 786.03 C 432.53 789.94 431.62 793.76 430.29 797.49 C 428.39 804.01 427.14 810.73 424.87 817.15 C 423.85 823.34 421.38 829.18 420.33 835.37 C 413.68 858.37 407.84 881.58 401.73 904.72 C 401.13 906.11 400.08 907.24 399.19 908.46 C 326.10 908.49 253.01 908.40 179.92 908.55 C 180.13 907.85 180.56 906.46 180.77 905.77 C 191.65 902.75 201.75 897.48 211.56 891.99 C 244.70 873.33 269.27 841.52 282.19 806.03 C 285.03 796.70 288.56 787.56 290.57 777.99 C 294.19 764.60 297.69 751.18 301.43 737.82 C 303.17 732.03 304.00 725.97 306.20 720.32 C 306.98 715.47 308.80 710.88 309.83 706.09 C 310.70 702.06 311.79 698.09 313.21 694.22 C 314.30 687.68 316.84 681.50 318.13 675.01 C 319.41 670.67 321.08 666.44 321.83 661.97 C 322.58 660.53 323.33 659.10 324.08 657.67 Z" />
</g>
<g id="#e72126ff">
<path fill="#e72126" opacity="1.00" d=" M 68.32 159.27 C 71.71 162.80 74.25 167.02 77.58 170.60 C 80.17 173.37 81.53 177.05 84.24 179.73 C 100.81 197.50 118.09 214.82 137.63 229.34 C 150.91 239.66 164.85 249.15 179.26 257.83 C 185.79 261.18 191.77 265.47 198.32 268.78 C 213.24 277.70 228.98 285.05 244.64 292.54 C 277.84 307.84 311.83 321.37 346.08 334.14 C 367.23 342.43 388.79 349.60 409.78 358.30 C 426.89 364.43 443.37 372.15 460.23 378.91 C 477.63 386.84 495.04 394.83 511.57 404.47 C 524.26 411.87 536.93 419.42 548.63 428.33 C 554.06 432.96 560.17 436.74 565.19 441.83 C 571.93 447.39 577.81 453.87 584.06 459.94 C 592.97 468.12 600.27 477.85 607.36 487.59 C 623.98 509.37 636.28 534.09 646.49 559.42 C 652.05 573.18 656.21 587.45 659.97 601.80 C 661.88 609.86 665.57 617.57 665.68 626.00 C 665.62 630.55 667.99 634.55 668.87 638.91 C 670.69 651.53 670.99 664.30 672.61 676.96 C 673.00 687.06 676.04 697.09 674.63 707.21 C 672.76 702.92 672.42 698.21 671.45 693.69 C 669.08 681.73 664.54 670.37 661.26 658.66 C 659.69 653.39 657.46 648.36 655.73 643.16 C 651.18 628.74 644.42 615.14 637.05 602.00 C 634.17 594.81 629.57 588.53 626.45 581.47 C 625.31 579.09 623.49 577.16 622.08 574.97 C 616.34 564.41 608.84 554.96 601.62 545.39 C 590.26 529.67 576.46 515.95 562.92 502.14 C 549.91 491.08 537.32 479.49 523.18 469.87 C 517.87 466.22 512.97 461.97 507.32 458.84 C 503.04 456.51 499.14 453.60 495.10 450.91 C 475.74 439.06 455.48 428.76 434.90 419.22 C 419.71 412.74 404.84 405.49 389.30 399.86 C 382.14 396.72 374.53 394.78 367.34 391.68 C 363.37 390.00 359.29 388.37 354.92 388.14 C 360.10 392.76 366.59 395.59 371.91 400.06 C 382.51 406.88 391.53 415.76 401.14 423.84 C 405.28 427.32 409.29 430.99 412.81 435.12 C 425.26 447.15 437.00 460.08 446.58 474.55 C 448.55 477.66 452.05 480.43 451.70 484.46 C 448.86 480.88 443.87 481.33 440.45 478.63 C 436.07 475.42 431.25 472.98 426.45 470.49 C 414.95 462.92 402.47 457.07 390.49 450.34 C 377.67 444.44 364.92 438.36 351.85 433.00 C 340.41 428.61 329.30 423.40 317.95 418.79 C 287.70 406.23 257.17 394.09 228.19 378.73 C 194.32 362.17 162.87 340.43 135.99 313.98 C 131.90 311.38 129.64 307.00 126.52 303.45 C 118.08 293.46 109.97 283.14 103.38 271.81 C 96.03 260.54 90.42 248.27 85.30 235.87 C 80.66 223.17 75.79 210.38 74.08 196.89 C 73.40 196.26 72.71 195.64 72.03 195.01 C 71.98 191.37 71.75 187.71 71.12 184.12 C 69.60 175.92 68.72 167.60 68.32 159.27 Z" />
<path fill="#e72126" opacity="1.00" d=" M 678.86 379.36 C 692.65 386.10 707.15 392.27 722.56 393.84 C 736.97 396.26 751.68 397.17 766.24 395.67 C 775.18 395.50 783.89 393.28 792.81 392.90 C 805.41 390.39 818.29 391.60 831.04 391.30 C 839.61 391.04 848.13 392.26 856.54 393.78 C 860.79 394.57 865.00 396.58 869.40 395.63 C 872.90 394.72 876.17 396.52 879.32 397.75 C 881.08 398.18 882.88 398.46 884.70 398.71 C 886.41 399.74 888.25 400.54 890.14 401.23 C 901.05 404.93 911.27 410.63 920.44 417.57 C 925.44 422.44 931.09 426.99 934.24 433.37 C 936.61 437.48 937.82 442.11 938.79 446.72 C 939.49 447.51 940.21 448.30 940.95 449.10 C 952.09 453.73 963.25 458.70 972.51 466.61 L 972.38 467.57 C 972.03 470.34 971.63 473.10 970.85 475.79 C 971.61 475.32 972.39 474.86 973.19 474.40 C 974.13 475.34 975.07 476.27 976.04 477.21 C 973.45 477.33 970.92 477.91 968.36 478.23 C 966.18 476.82 964.48 474.72 962.03 473.73 C 955.16 470.66 948.60 466.87 941.45 464.44 C 937.48 463.17 934.02 460.61 929.96 459.68 C 926.13 459.99 922.66 461.86 919.12 463.21 C 919.49 462.86 920.24 462.18 920.61 461.84 C 920.18 461.01 919.77 460.18 919.37 459.36 C 922.98 457.10 925.84 452.87 924.82 448.47 C 922.53 439.86 916.10 433.12 909.21 427.82 C 896.54 418.21 880.87 413.99 865.77 409.88 C 848.42 406.71 830.72 404.27 813.06 406.00 C 807.00 406.75 800.83 406.27 794.84 407.56 C 789.61 408.65 784.23 408.61 778.99 409.64 C 771.09 411.26 762.99 410.34 755.00 410.61 C 748.24 410.86 741.66 409.12 734.97 408.55 C 727.98 407.90 721.33 404.65 714.23 405.23 C 711.88 405.26 710.86 408.80 712.61 410.27 C 716.76 415.49 722.07 419.67 727.56 423.42 C 732.95 427.14 739.29 429.09 744.98 432.29 C 716.97 440.78 689.71 453.27 667.21 472.26 C 665.09 473.76 665.05 477.47 667.30 478.86 C 671.23 479.61 675.05 477.82 678.79 476.87 C 686.50 474.43 694.58 473.63 702.36 471.47 C 707.33 470.11 712.63 470.28 717.47 468.38 C 717.87 468.22 718.66 467.91 719.05 467.75 C 723.67 467.41 728.42 467.18 732.88 468.71 C 728.52 472.22 723.50 474.73 718.95 477.96 C 706.67 486.88 694.27 495.85 684.00 507.13 C 683.54 507.33 682.61 507.71 682.14 507.91 C 679.15 509.08 677.84 512.22 675.63 514.33 C 672.79 517.07 669.93 519.79 667.45 522.87 C 663.75 516.30 661.09 509.22 657.50 502.60 C 653.11 493.91 647.93 485.66 642.48 477.61 C 641.55 475.97 640.15 474.28 640.38 472.30 C 644.13 466.47 650.02 462.52 655.56 458.54 C 669.25 447.94 684.54 439.59 700.31 432.52 C 704.01 431.46 705.30 426.23 702.44 423.61 C 690.76 411.36 683.04 395.66 678.86 379.36 Z" />
<path fill="#e72126" opacity="1.00" d=" M 678.62 538.73 C 699.72 524.03 723.16 512.73 747.66 504.95 C 746.15 507.01 744.82 509.20 743.17 511.16 C 732.91 520.09 724.89 531.31 717.72 542.79 C 707.64 557.55 699.68 573.67 693.19 590.30 C 692.69 591.94 691.51 593.18 690.22 594.24 C 687.55 586.46 686.77 578.15 683.65 570.53 C 681.95 565.77 680.87 560.83 679.22 556.06 C 678.01 551.98 676.20 548.07 675.42 543.88 C 674.73 541.50 676.95 539.91 678.62 538.73 Z" />
</g>
</svg>
